<?xml version="1.0" encoding="UTF-8" standalone="no"?>
<!-- Created with Inkscape (http://www.inkscape.org/) -->

<svg
   width="680"
   height="204"
   viewBox="0 0 179.91666 53.975"
   version="1.1"
   id="svg1"
   xmlns="http://www.w3.org/2000/svg"
   xmlns:svg="http://www.w3.org/2000/svg">
  <defs
     id="defs1" />
  <g
     id="layer1">
    <g
       id="g1">
      <g
         id="layer1-5"
         transform="matrix(0.25803105,0,0,0.25803105,-32.237166,-73.89062)">
        <path
           id="path1"
           style="fill:#99ff55;fill-opacity:1;stroke:none;stroke-width:0.111846"
           d="m 268.26893,303.38316 a 7.0343747,7.0343747 0 0 0 -6.07302,3.55017 l -51.75963,90.77844 -39.69008,69.61022 a 7.0343747,7.0343747 0 0 0 6.14898,10.51822 l 51.89037,-0.28008 14.25908,-15.52464 h 52.25056 l 13.86065,15.09107 52.36476,-0.28267 a 7.0343747,7.0343747 0 0 0 6.03478,-10.58436 l -52.73632,-90.21465 -40.43939,-69.17769 a 7.0343747,7.0343747 0 0 0 -6.11074,-3.48403 z m 0.45269,59.01604 a 41.90118,41.90118 0 0 1 41.9008,41.90132 41.90118,41.90118 0 0 1 -41.9008,41.90132 41.90118,41.90118 0 0 1 -41.90133,-41.90132 41.90118,41.90118 0 0 1 41.90133,-41.90132 z m 0,10.60194 a 31.299678,31.299678 0 0 0 -31.29991,31.29938 31.299678,31.299678 0 0 0 31.29991,31.2999 31.299678,31.299678 0 0 0 31.29938,-31.2999 31.299678,31.299678 0 0 0 -31.29938,-31.29938 z m 0.44803,19.68872 a 11.61117,11.61117 0 0 1 11.61118,11.61066 11.61117,11.61117 0 0 1 -11.61118,11.61117 11.61117,11.61117 0 0 1 -11.61118,-11.61117 11.61117,11.61117 0 0 1 11.61118,-11.61066 z" />
      </g>
      <path
         style="font-size:21.7557px;font-family:Nasalization;-inkscape-font-specification:'Nasalization, Normal';fill:#99ff55;stroke-width:0.257248;stroke-linecap:round;stroke-linejoin:round;stroke-dashoffset:452.031"
         d="m 68.911168,35.226453 c -2.675951,0 -3.74198,1.568626 -3.74198,4.09438 0,2.153539 0.783205,4.094381 3.959537,4.094381 h 2.719462 c 1.153052,0 1.631678,0.451977 1.631678,1.568626 0,1.090063 -0.435114,1.54204 -1.501143,1.54204 h -6.679 v 2.73845 h 6.679 c 2.697706,0 3.763736,-1.754734 3.763736,-4.253902 0,-2.180124 -0.804961,-3.961446 -3.981293,-3.961446 h -2.697707 c -1.283586,0 -1.631677,-0.531738 -1.631677,-1.515453 0,-1.063475 0.435113,-1.595214 1.501143,-1.595214 h 6.352664 v -2.711862 z m 8.397709,0 v 2.711862 h 1.56641 v 6.487202 c 0,3.668989 1.022518,4.838813 3.39389,4.838813 h 2.066791 v -2.578929 h -1.588166 c -1.087785,0 -1.544655,-0.531737 -1.544655,-2.100363 v -6.646723 h 3.176332 v -2.711862 h -3.176332 v -3.323361 h -2.32786 v 3.323361 z m 12.400749,0 c -2.262593,0 -3.111065,1.27617 -3.111065,4.09438 v 9.943497 h 2.306104 v -9.518108 c 0,-1.222995 0.456869,-1.807907 1.479387,-1.807907 h 4.04656 v -2.711862 z m 7.440434,0 v 2.711862 h 6.87479 c 1.26183,0 1.76221,0.850781 1.76221,1.940844 v 1.063475 h -5.46068 c -2.828229,0 -3.872502,1.488865 -3.872502,4.041206 0,2.658689 1.131296,4.28049 3.850752,4.28049 h 5.37366 c 1.93625,0 2.37137,-0.797608 2.37137,-2.81821 v -6.593549 c 0,-2.658689 -1.1313,-4.626118 -4.00305,-4.626118 z m 8.00609,11.299427 h -4.82977 c -1.153044,0 -1.609911,-0.664673 -1.609911,-1.701561 0,-1.036888 0.435117,-1.648387 1.653421,-1.648387 h 5.41717 v 2.632102 c 0,0.505151 -0.17404,0.717846 -0.63091,0.717846 z m 7.7668,-11.299427 c -1.15305,0 -1.60992,0.531738 -1.60992,2.180125 V 49.26433 h 2.30611 V 38.337119 c 0,-0.26587 0.087,-0.398804 0.28282,-0.398804 h 3.76374 c 2.41488,0 3.45915,1.222998 3.45915,3.429709 v 7.896306 h 2.32786 v -7.896306 c 0,-3.881686 -1.89274,-6.141571 -5.78701,-6.141571 z m 18.20954,0 c -3.06756,0 -4.98206,2.286472 -4.98206,7.018938 0,4.732467 1.9145,7.018939 4.98206,7.018939 h 2.41488 c 3.0458,0 4.98206,-2.286472 4.98206,-7.018939 0,-4.732466 -1.93626,-7.018938 -4.98206,-7.018938 z m 2.19732,2.711862 c 1.97977,0 2.87176,1.276171 2.87176,4.307076 0,3.030906 -0.89199,4.280489 -2.87176,4.280489 h -1.97976 c -2.00153,0 -2.87176,-1.249583 -2.87176,-4.280489 0,-3.030905 0.87023,-4.307076 2.87176,-4.307076 z m 6.0916,-2.711862 4.22061,12.522425 c 0.43511,1.302756 1.28359,1.834494 2.61068,1.834494 1.30535,0 2.15382,-0.50515 2.63244,-1.834494 l 4.43817,-12.522425 h -2.48015 l -3.9813,11.27284 c -0.10878,0.292456 -0.30458,0.425391 -0.60916,0.425391 -0.28282,0 -0.47862,-0.132935 -0.56564,-0.425391 l -3.82901,-11.27284 z m 16.42556,0 v 2.711862 h 6.8748 c 1.26183,0 1.76221,0.850781 1.76221,1.940844 v 1.063475 h -5.46068 c -2.82824,0 -3.87252,1.488865 -3.87252,4.041206 0,2.658689 1.1313,4.28049 3.85076,4.28049 h 5.37366 c 1.93626,0 2.37137,-0.797608 2.37137,-2.81821 v -6.593549 c 0,-2.658689 -1.1313,-4.626118 -4.00305,-4.626118 z m 8.00609,11.299427 h -4.82976 c -1.15305,0 -1.60992,-0.664673 -1.60992,-1.701561 0,-1.036888 0.43511,-1.648387 1.65343,-1.648387 h 5.41717 v 2.632102 c 0,0.505151 -0.17405,0.717846 -0.63092,0.717846 z"
         id="text1"
         aria-label="stranova" />
    </g>
  </g>
</svg>
