<?xml version="1.0" encoding="UTF-8" standalone="no"?>
<!-- Created with Inkscape (http://www.inkscape.org/) -->

<svg
   width="540"
   height="540"
   viewBox="0 0 142.875 142.87503"
   version="1.1"
   id="svg1"
   xmlns="http://www.w3.org/2000/svg"
   xmlns:svg="http://www.w3.org/2000/svg">
  <defs
     id="defs1" />
  <g
     id="layer1">
    <path
       id="path1"
       style="fill:#99ff55;fill-opacity:1;stroke:none;stroke-width:0.0681293"
       d="m 70.888695,18.303576 a 4.284882,4.284882 0 0 0 -3.69929,2.162532 L 35.66082,75.762409 11.484213,118.16441 a 4.284882,4.284882 0 0 0 3.745558,6.40701 l 31.608227,-0.17061 8.685701,-9.45659 h 31.827636 l 8.443,9.19249 31.897195,-0.17218 a 4.284882,4.284882 0 0 0 3.676,-6.4473 L 99.243997,62.564354 74.610965,20.42582 a 4.284882,4.284882 0 0 0 -3.72227,-2.122244 z m 0.27575,35.94872 A 25.523465,25.523465 0 0 1 96.687675,79.775845 25.523465,25.523465 0 0 1 71.164445,105.29939 25.523465,25.523465 0 0 1 45.64089,79.775845 25.523465,25.523465 0 0 1 71.164445,54.252296 Z m 0,6.45801 a 19.065721,19.065721 0 0 0 -19.065862,19.065539 19.065721,19.065721 0 0 0 19.065862,19.06586 19.065721,19.065721 0 0 0 19.06554,-19.06586 19.065721,19.065721 0 0 0 -19.06554,-19.065539 z m 0.27291,11.993084 a 7.0727671,7.0727671 0 0 1 7.07277,7.072455 7.0727671,7.0727671 0 0 1 -7.07277,7.07277 7.0727671,7.0727671 0 0 1 -7.07277,-7.07277 7.0727671,7.0727671 0 0 1 7.07277,-7.072455 z" />
  </g>
</svg>
