<?xml version="1.0" encoding="UTF-8" standalone="no"?>
<svg
   width="1024"
   height="1024"
   viewBox="0 0 1024 1024"
   role="img"
   aria-label="Mint green rounded play logo"
   version="1.1"
   id="svg12"
   xmlns:xlink="http://www.w3.org/1999/xlink"
   xmlns="http://www.w3.org/2000/svg"
   xmlns:svg="http://www.w3.org/2000/svg">
  <defs
     id="defs9">
    <linearGradient
       id="outerMint"
       x1="250"
       y1="180"
       x2="770"
       y2="860"
       gradientUnits="userSpaceOnUse">
      <stop
         offset="0"
         stop-color="#7cffb0"
         id="stop1" />
      <stop
         offset="0.55"
         stop-color="#64f3a2"
         id="stop2" />
      <stop
         offset="1"
         stop-color="#7cffb0"
         id="stop3" />
    </linearGradient>
    <linearGradient
       id="innerShadow"
       x1="395.50534"
       y1="455.45721"
       x2="352.68317"
       y2="275.40109"
       gradientUnits="userSpaceOnUse"
       gradientTransform="matrix(1.0114943,0,0,1,21.427278,14.434732)">
      <stop
         offset="0"
         stop-color="#1b8a50"
         stop-opacity="0.82"
         id="stop4"
         style="stop-color:#000000;stop-opacity:0;" />
      <stop
         offset="0.90272373"
         stop-color="#137241"
         stop-opacity="0.9"
         id="stop6"
         style="stop-color:#000000;stop-opacity:0.42432433;" />
    </linearGradient>
    <linearGradient
       xlink:href="#innerShadow"
       id="linearGradient12"
       gradientUnits="userSpaceOnUse"
       gradientTransform="matrix(-0.59421428,0.81855367,-0.80925189,-0.58746182,1148.5257,380.00406)"
       x1="348.71021"
       y1="468.20251"
       x2="352.68317"
       y2="275.40109" />
    <linearGradient
       xlink:href="#innerShadow"
       id="linearGradient14"
       gradientUnits="userSpaceOnUse"
       gradientTransform="matrix(-0.58740436,-0.82345422,0.81409674,-0.58072929,387.13903,1190.161)"
       x1="348.71021"
       y1="468.20251"
       x2="352.68317"
       y2="275.40109" />
    <linearGradient
       xlink:href="#innerShadow"
       id="linearGradient15"
       gradientUnits="userSpaceOnUse"
       gradientTransform="matrix(1.0114916,0.00236892,-0.00234198,0.99999726,23.451879,18.24541)"
       x1="348.71021"
       y1="468.20251"
       x2="352.68317"
       y2="275.40109" />
  </defs>
  <!-- transparent background -->
  <path
     fill="url(#outerMint)"
     d="m 393,171 c -67,0 -121,54 -121,121 v 444 c 0,67 54,121 121,121 25,0 49,-8 69,-22 4,-3 8,-6 12,-9 L 779,571 c 55,-46 55,-131 0,-177 L 474,199 c -22,-18 -50,-28 -81,-28 z m 28,174 230,166 -230,166 z"
     fill-rule="evenodd"
     id="path9"
     style="fill:url(#outerMint)" />
  <path
     fill="url(#innerShadow)"
     d="m 665.51704,485.19825 c -0.0624,-14.47122 2.9051,-29.282 -36.21448,-59.62232 L 486.16175,314.55894 c -26.0764,-20.2243 46.31652,111.39655 71.38101,129.46543 l 93.41937,66.96507 c 8.49619,-5.41701 13.06669,-16.30712 14.55491,-25.79119 z"
     opacity="0.88"
     id="path10-5"
     style="fill:url(#linearGradient12);stroke-width:1.00573" />
  <path
     fill="url(#innerShadow)"
     d="m 440.82231,698.75371 c 13.74154,4.53766 26.84259,12.05615 68.03794,-15.39961 L 659.59646,582.89186 c 27.46008,-18.30151 -120.33958,8.5322 -145.43442,26.55889 l -93.1717,67.30924 c 2.43761,9.77687 11.31185,17.56993 19.83197,21.99372 z"
     opacity="0.88"
     id="path10-5-9"
     style="fill:url(#linearGradient14);stroke-width:1.00573" />
  <path
     fill="url(#innerShadow)"
     d="m 391.55787,348.18646 c -11.6942,8.52442 -25.43785,14.79156 -27.12544,64.26912 l -6.17496,181.04125 c -1.12492,32.98083 63.17955,-102.77527 63.14975,-133.67369 l -0.41951,-114.94052 c -9.36623,-3.7152 -20.87035,-1.04331 -29.42984,3.30384 z"
     opacity="0.88"
     id="path10-5-9-8"
     style="fill:url(#linearGradient15);stroke-width:1.00573" />
  <path
     fill="none"
     d="M 421,345 651,511 421,677 Z"
     id="path12" />
</svg>
